<?xml version="1.0" encoding="utf-8"?>
<!-- Generator: Adobe Illustrator 23.0.3, SVG Export Plug-In . SVG Version: 6.00 Build 0)  -->
<svg version="1.1" id="Layer_1" xmlns="http://www.w3.org/2000/svg" xmlns:xlink="http://www.w3.org/1999/xlink" x="0px" y="0px"
	 viewBox="0 0 512 512" style="enable-background:new 0 0 512 512;" xml:space="preserve">
<style type="text/css">
	.st0{fill:#FFFFFF;}
</style>
<g>
	<path class="st0" d="M92.7,195.3c15.3,0.5,29.3,3.8,41.3,9.2c21.9-47.6,70.1-81.8,126.7-92.4c-5.6-8.9-8.8-18.8-8.8-29
		c0-3.9,0.5-7.6,1.4-11.2c-37.9,4.7-74.4,17.8-106.2,39.2C114,133.5,89.4,162.6,75.4,196C81.1,195.3,86.8,195.1,92.7,195.3z"/>
	<path class="st0" d="M455.1,138.9c-20.6-21.9-46.6-39.4-76.3-51.2c0.7,3.4,1.1,6.9,1.1,10.5c0,9.3-2.8,17.7-7.5,24.8
		c58.9,24,97.8,76,97.4,133c-0.4,56.9-39.8,109.1-98.7,133.9c4.6,6.9,7.2,15.2,7.2,24.3c0,3.5-0.4,6.9-1.2,10.3
		c29.6-12.2,55.6-29.9,76.4-51.9c31.8-33.6,48.9-74.7,49.2-116.9C503,213.3,486.6,172.3,455.1,138.9z"/>
	<path class="st0" d="M251.3,431.2c0-10,3.2-19.9,8.8-28.7c-56.1-9.5-104.1-42.3-125.9-89.1c-11.9,5.6-25.9,9.1-41.2,9.9
		c-5.9,0.3-11.6,0.2-17.3-0.4c14.1,32.8,38.7,61.2,71.7,82.6c31.5,20.5,67.7,32.7,105.2,36.6C251.8,438.7,251.3,435,251.3,431.2z"/>
</g>
<g>
	<path class="st0" d="M157.6,229.7c-13-16.4-36.8-27.8-64.8-28.6c-45.1-1.3-83.5,25.1-83.4,59.1C9.5,294,48.1,319.6,93,317.5
		c34.2-1.6,62.1-18.9,71.6-41.5l-6.8-43.4C157.7,231.6,157.6,230.6,157.6,229.7z M92.9,285.6c-19.9,0.5-36.5-11-36.6-25.8
		c0-14.8,16.5-26.7,36.4-26.5c19.5,0.1,34.9,11.8,34.9,25.9C127.8,273.2,112.4,285.1,92.9,285.6z"/>
	<path class="st0" d="M292.4,87.8c0-12.7,12.1-21.4,26.7-19.4c14.3,1.9,25.6,13.3,25.5,25.6c0,6.9-3.7,12.8-9.5,16.2l-2.5,30.5
		c24.3-3.3,41.8-20.8,41.9-43.2c0.1-26.5-24.1-51.8-55.4-56.7c-32.9-5.1-60.8,14.1-60.8,43.1c0,24.4,19.6,46.4,45.4,54.3l10.6-25.4
		C301.9,109.6,292.3,99.2,292.4,87.8z"/>
	<path class="st0" d="M318,372.9c-32.6,3.2-60.3,29-60.3,57.4c0,28.4,27.5,46.7,60,41.1c31-5.3,55.2-30.5,55.3-56.6
		C373.1,388.8,349.1,369.9,318,372.9z M317.8,444.4c-14.5,2.2-26.4-6.1-26.3-18.6c0-12.5,12-24,26.5-25.7
		c14.1-1.7,25.4,6.8,25.3,18.8C343.2,430.9,331.9,442.3,317.8,444.4z"/>
</g>
<path class="st0" d="M441.5,265.8l-10.8-72.6c-2.6-17.4-20-29.7-39.4-27.4l-45.6,5.4c-3.5-3.3-12.5-5.4-24.2-5.6l4.7-58.2
	l-23.4,56.3L268.5,136l18.6,33.7c-11.5,2.9-20,7-22.6,11.1l-55.4,6.5c-26.3,3.1-45.6,22.8-42.3,43.9l13.8,88.2
	c3.3,21,27.5,33,53.2,27l9.7-2.3l-0.1,23.3c-0.3,2.8,4.4,4.7,10.4,4.3c6-0.4,11.1-3,11.4-5.7l6.1-28.3L382,312l12,21.6
	c0.9,2.2,5.4,2.2,9.9,0c4.5-2.1,7.4-5.6,6.5-7.7l-5.8-19.2l7.5-1.7C431.2,300.6,444.1,283.1,441.5,265.8z M384.1,293.5l-165.9,36.1
	c-7.5,1.6-14.3-1.9-15.3-7.9l-15.6-100.4c-0.9-6,4.5-11.7,12.1-12.7L368,186.5c5.9-0.8,11.3,2.9,12,8.1l13.1,87.2l0,0
	C393.9,287,389.9,292.2,384.1,293.5z M407.6,199.6c5.9-0.9,11.3,2.8,12.1,8.2c0.8,5.4-3.3,10.5-9.1,11.5c-5.9,1-11.5-2.7-12.3-8.2
	C397.4,205.6,401.6,200.5,407.6,199.6z M417.6,266.1c-8.5,1.7-16.5-3.3-17.7-11.3c-1.2-8,4.9-15.7,13.5-17.2
	c8.5-1.5,16.2,3.6,17.4,11.4C431.8,256.7,426,264.4,417.6,266.1z"/>
</svg>
