<?xml version="1.0" encoding="utf-8"?>
<!-- Generator: Adobe Illustrator 23.0.3, SVG Export Plug-In . SVG Version: 6.00 Build 0)  -->
<svg version="1.1" id="Layer_1" xmlns="http://www.w3.org/2000/svg" xmlns:xlink="http://www.w3.org/1999/xlink" x="0px" y="0px"
	 viewBox="0 0 512 512" style="enable-background:new 0 0 512 512;" xml:space="preserve">
<style type="text/css">
	.st0{fill:url(#SVGID_1_);}
	.st1{fill:url(#SVGID_2_);}
	.st2{fill:url(#SVGID_3_);}
	.st3{fill:url(#SVGID_4_);}
	.st4{fill:url(#SVGID_5_);}
	.st5{fill:url(#SVGID_6_);}
	.st6{fill:url(#SVGID_7_);}
</style>
<g>
	<linearGradient id="SVGID_1_" gradientUnits="userSpaceOnUse" x1="302.5302" y1="-30.9406" x2="21.923" y2="346.0951">
		<stop  offset="0" style="stop-color:#1F6163"/>
		<stop  offset="0.0536" style="stop-color:#27787E"/>
		<stop  offset="0.1271" style="stop-color:#30929B"/>
		<stop  offset="0.205" style="stop-color:#37A6B3"/>
		<stop  offset="0.2882" style="stop-color:#3CB4C3"/>
		<stop  offset="0.3806" style="stop-color:#3FBCCD"/>
		<stop  offset="0.5" style="stop-color:#40BFD0"/>
		<stop  offset="0.6848" style="stop-color:#3FBDCE"/>
		<stop  offset="0.7725" style="stop-color:#3DB7C6"/>
		<stop  offset="0.8398" style="stop-color:#39ACB9"/>
		<stop  offset="0.8967" style="stop-color:#349CA7"/>
		<stop  offset="0.9469" style="stop-color:#2D878F"/>
		<stop  offset="0.9918" style="stop-color:#246E72"/>
		<stop  offset="1" style="stop-color:#22696C"/>
	</linearGradient>
	<path class="st0" d="M92.73,195.27c15.26,0.49,29.32,3.84,41.32,9.22c21.9-47.58,70.11-81.75,126.67-92.38
		c-5.59-8.86-8.79-18.78-8.77-29.01c0.01-3.89,0.49-7.64,1.38-11.2c-37.89,4.69-74.45,17.82-106.19,39.23
		c-33.11,22.34-57.78,51.51-71.73,84.84C81.06,195.33,86.85,195.08,92.73,195.27z"/>
	<linearGradient id="SVGID_2_" gradientUnits="userSpaceOnUse" x1="501.193" y1="116.9133" x2="220.5859" y2="493.949">
		<stop  offset="0" style="stop-color:#1F6163"/>
		<stop  offset="0.0536" style="stop-color:#27787E"/>
		<stop  offset="0.1271" style="stop-color:#30929B"/>
		<stop  offset="0.205" style="stop-color:#37A6B3"/>
		<stop  offset="0.2882" style="stop-color:#3CB4C3"/>
		<stop  offset="0.3806" style="stop-color:#3FBCCD"/>
		<stop  offset="0.5" style="stop-color:#40BFD0"/>
		<stop  offset="0.6848" style="stop-color:#3FBDCE"/>
		<stop  offset="0.7725" style="stop-color:#3DB7C6"/>
		<stop  offset="0.8398" style="stop-color:#39ACB9"/>
		<stop  offset="0.8967" style="stop-color:#349CA7"/>
		<stop  offset="0.9469" style="stop-color:#2D878F"/>
		<stop  offset="0.9918" style="stop-color:#246E72"/>
		<stop  offset="1" style="stop-color:#22696C"/>
	</linearGradient>
	<path class="st1" d="M455.07,138.86c-20.63-21.87-46.59-39.36-76.31-51.24c0.72,3.43,1.09,6.93,1.07,10.46
		c-0.05,9.28-2.76,17.71-7.49,24.83c58.93,24.01,97.79,75.96,97.36,133.02c-0.42,56.89-39.83,109.11-98.67,133.89
		c4.63,6.94,7.23,15.19,7.19,24.32c-0.02,3.47-0.42,6.92-1.17,10.3c29.59-12.22,55.57-29.91,76.36-51.87
		c31.83-33.63,48.87-74.66,49.22-116.95C502.99,213.25,486.57,172.26,455.07,138.86z"/>
	<linearGradient id="SVGID_3_" gradientUnits="userSpaceOnUse" x1="411.5677" y1="50.2101" x2="130.9606" y2="427.2458">
		<stop  offset="0" style="stop-color:#1F6163"/>
		<stop  offset="0.0536" style="stop-color:#27787E"/>
		<stop  offset="0.1271" style="stop-color:#30929B"/>
		<stop  offset="0.205" style="stop-color:#37A6B3"/>
		<stop  offset="0.2882" style="stop-color:#3CB4C3"/>
		<stop  offset="0.3806" style="stop-color:#3FBCCD"/>
		<stop  offset="0.5" style="stop-color:#40BFD0"/>
		<stop  offset="0.6848" style="stop-color:#3FBDCE"/>
		<stop  offset="0.7725" style="stop-color:#3DB7C6"/>
		<stop  offset="0.8398" style="stop-color:#39ACB9"/>
		<stop  offset="0.8967" style="stop-color:#349CA7"/>
		<stop  offset="0.9469" style="stop-color:#2D878F"/>
		<stop  offset="0.9918" style="stop-color:#246E72"/>
		<stop  offset="1" style="stop-color:#22696C"/>
	</linearGradient>
	<path class="st2" d="M251.34,431.2c0.02-10.05,3.23-19.87,8.81-28.69c-56.12-9.45-104.05-42.32-125.95-89.12
		c-11.95,5.57-25.95,9.15-41.16,9.92c-5.87,0.3-11.64,0.16-17.26-0.38c14.07,32.8,38.72,61.19,71.65,82.61
		c31.5,20.48,67.72,32.71,105.24,36.63C251.8,438.69,251.33,435.02,251.34,431.2z"/>
</g>
<g>
	<linearGradient id="SVGID_4_" gradientUnits="userSpaceOnUse" x1="138.3475" y1="179.6756" x2="52.9237" y2="316.8033">
		<stop  offset="0" style="stop-color:#1F6163"/>
		<stop  offset="0.0536" style="stop-color:#27787E"/>
		<stop  offset="0.1271" style="stop-color:#30929B"/>
		<stop  offset="0.205" style="stop-color:#37A6B3"/>
		<stop  offset="0.2882" style="stop-color:#3CB4C3"/>
		<stop  offset="0.3806" style="stop-color:#3FBCCD"/>
		<stop  offset="0.5" style="stop-color:#40BFD0"/>
		<stop  offset="0.6848" style="stop-color:#3FBDCE"/>
		<stop  offset="0.7725" style="stop-color:#3DB7C6"/>
		<stop  offset="0.8398" style="stop-color:#39ACB9"/>
		<stop  offset="0.8967" style="stop-color:#349CA7"/>
		<stop  offset="0.9469" style="stop-color:#2D878F"/>
		<stop  offset="0.9918" style="stop-color:#246E72"/>
		<stop  offset="1" style="stop-color:#22696C"/>
	</linearGradient>
	<path class="st3" d="M157.55,229.68c-13.04-16.39-36.82-27.77-64.8-28.57c-45.11-1.29-83.54,25.14-83.39,59.06
		c0.16,33.85,38.7,59.45,83.67,57.35c34.18-1.6,62.05-18.92,71.64-41.54l-6.79-43.42C157.73,231.6,157.63,230.64,157.55,229.68z
		 M92.95,285.57c-19.93,0.52-36.51-11.04-36.56-25.84c-0.05-14.81,16.48-26.7,36.44-26.54c19.46,0.15,34.89,11.75,34.91,25.89
		C127.76,273.21,112.38,285.06,92.95,285.57z"/>
	<linearGradient id="SVGID_5_" gradientUnits="userSpaceOnUse" x1="353.9912" y1="30.1958" x2="289.2544" y2="134.1154">
		<stop  offset="0" style="stop-color:#1F6163"/>
		<stop  offset="0.0536" style="stop-color:#27787E"/>
		<stop  offset="0.1271" style="stop-color:#30929B"/>
		<stop  offset="0.205" style="stop-color:#37A6B3"/>
		<stop  offset="0.2882" style="stop-color:#3CB4C3"/>
		<stop  offset="0.3806" style="stop-color:#3FBCCD"/>
		<stop  offset="0.5" style="stop-color:#40BFD0"/>
		<stop  offset="0.6848" style="stop-color:#3FBDCE"/>
		<stop  offset="0.7725" style="stop-color:#3DB7C6"/>
		<stop  offset="0.8398" style="stop-color:#39ACB9"/>
		<stop  offset="0.8967" style="stop-color:#349CA7"/>
		<stop  offset="0.9469" style="stop-color:#2D878F"/>
		<stop  offset="0.9918" style="stop-color:#246E72"/>
		<stop  offset="1" style="stop-color:#22696C"/>
	</linearGradient>
	<path class="st4" d="M292.36,87.83c0.04-12.72,12.12-21.41,26.7-19.45c14.26,1.92,25.56,13.35,25.51,25.57
		c-0.03,6.94-3.71,12.76-9.5,16.23l-2.48,30.47c24.33-3.31,41.83-20.75,41.94-43.19c0.13-26.53-24.07-51.84-55.37-56.7
		c-32.87-5.1-60.78,14.1-60.84,43.09c-0.05,24.38,19.64,46.4,45.44,54.3l10.57-25.45C301.91,109.56,292.33,99.18,292.36,87.83z"/>
	<linearGradient id="SVGID_6_" gradientUnits="userSpaceOnUse" x1="357.833" y1="354.1941" x2="284.5473" y2="471.8369">
		<stop  offset="0" style="stop-color:#1F6163"/>
		<stop  offset="0.0536" style="stop-color:#27787E"/>
		<stop  offset="0.1271" style="stop-color:#30929B"/>
		<stop  offset="0.205" style="stop-color:#37A6B3"/>
		<stop  offset="0.2882" style="stop-color:#3CB4C3"/>
		<stop  offset="0.3806" style="stop-color:#3FBCCD"/>
		<stop  offset="0.5" style="stop-color:#40BFD0"/>
		<stop  offset="0.6848" style="stop-color:#3FBDCE"/>
		<stop  offset="0.7725" style="stop-color:#3DB7C6"/>
		<stop  offset="0.8398" style="stop-color:#39ACB9"/>
		<stop  offset="0.8967" style="stop-color:#349CA7"/>
		<stop  offset="0.9469" style="stop-color:#2D878F"/>
		<stop  offset="0.9918" style="stop-color:#246E72"/>
		<stop  offset="1" style="stop-color:#22696C"/>
	</linearGradient>
	<path class="st5" d="M318,372.93c-32.6,3.16-60.29,28.95-60.34,57.41c-0.05,28.43,27.47,46.71,60,41.12
		c31-5.32,55.18-30.55,55.31-56.61C373.09,388.77,349.07,369.92,318,372.93z M317.75,444.42c-14.45,2.18-26.37-6.13-26.34-18.61
		c0.04-12.49,12.03-24.03,26.49-25.73c14.15-1.66,25.37,6.76,25.32,18.77C343.17,430.86,331.89,442.29,317.75,444.42z"/>
</g>
<linearGradient id="SVGID_7_" gradientUnits="userSpaceOnUse" x1="373.5987" y1="136.8974" x2="232.1335" y2="363.9863">
	<stop  offset="0" style="stop-color:#1F6163"/>
	<stop  offset="0.0536" style="stop-color:#27787E"/>
	<stop  offset="0.1271" style="stop-color:#30929B"/>
	<stop  offset="0.205" style="stop-color:#37A6B3"/>
	<stop  offset="0.2882" style="stop-color:#3CB4C3"/>
	<stop  offset="0.3806" style="stop-color:#3FBCCD"/>
	<stop  offset="0.5" style="stop-color:#40BFD0"/>
	<stop  offset="0.6848" style="stop-color:#3FBDCE"/>
	<stop  offset="0.7725" style="stop-color:#3DB7C6"/>
	<stop  offset="0.8398" style="stop-color:#39ACB9"/>
	<stop  offset="0.8967" style="stop-color:#349CA7"/>
	<stop  offset="0.9469" style="stop-color:#2D878F"/>
	<stop  offset="0.9918" style="stop-color:#246E72"/>
	<stop  offset="1" style="stop-color:#22696C"/>
</linearGradient>
<path class="st6" d="M441.51,265.81l-10.84-72.58c-2.61-17.35-20-29.66-39.36-27.38l-45.58,5.36c-3.49-3.31-12.47-5.35-24.21-5.56
	l4.74-58.23l-23.37,56.26l-34.4-27.72l18.62,33.68c-11.52,2.9-20.01,6.98-22.63,11.09l-55.44,6.51
	c-26.26,3.08-45.59,22.8-42.29,43.92l13.79,88.19c3.29,21.02,27.48,33.02,53.18,27.05l9.69-2.25l-0.07,23.31
	c-0.32,2.77,4.38,4.67,10.44,4.25c6-0.41,11.07-2.96,11.37-5.69l6.11-28.34l110.76-25.7l12.01,21.63c0.92,2.17,5.37,2.18,9.91,0.03
	c4.52-2.12,7.42-5.58,6.52-7.73l-5.75-19.19l7.51-1.74C431.22,300.58,444.09,283.11,441.51,265.81z M384.12,293.47L218.17,329.6
	c-7.46,1.62-14.34-1.89-15.28-7.88l-15.64-100.38c-0.94-6,4.53-11.72,12.11-12.72l168.59-22.16c5.88-0.77,11.25,2.86,12.04,8.08
	l13.14,87.24l0,0C393.93,286.98,389.9,292.21,384.12,293.47z M407.6,199.6c5.89-0.86,11.29,2.83,12.1,8.23
	c0.81,5.38-3.27,10.54-9.14,11.49c-5.93,0.96-11.45-2.71-12.28-8.19C397.44,205.65,401.64,200.47,407.6,199.6z M417.57,266.1
	c-8.53,1.72-16.53-3.33-17.72-11.27c-1.2-7.97,4.88-15.69,13.45-17.21c8.46-1.5,16.18,3.6,17.35,11.37
	C431.79,256.74,426,264.4,417.57,266.1z"/>
</svg>
